# xmcd CD database file
#
# Track frame offsets:
#	150
#	32364
#	66436
#	102079
#	133682
#	169295
#	201411
#	230791
#
# Disc length: 3464 seconds
#
# Revision: 0
# Processed by: cddbd v1.5.2PL0 Copyright (c) Steve Scherf et al.
# Submitted via: CDex 1.70beta2
#
DISCID=720d8608
DTITLE=Ro Gebhardt and Projects - European Jam [CD 2)
DYEAR=2007
DGENRE=Jazz
TTITLE0=My Romance
TTITLE1=E.Y.T.
TTITLE2=And I Love Her
TTITLE3=It's Rainy
TTITLE4=Bo Sco
TTITLE5=(Don't Try To Have) Teatime At Timesquare
TTITLE6=Remember Well Fleet
TTITLE7=Things To Come
EXTD=YEAR: 2007
EXTT0=
EXTT1=
EXTT2=
EXTT3=
EXTT4=
EXTT5=
EXTT6=
EXTT7=
PLAYORDER=
